Motion_pu07
version=1
nRows=5
nColumns=43
inDegrees=yes
endheader
time	pelvis_tilt	pelvis_list	pelvis_rotation	pelvis_tx	pelvis_ty	pelvis_tz	hip_flexion_r	hip_adduction_r	hip_rotation_r	knee_angle_r	ankle_angle_r	subtalar_angle_r	mtp_angle_r	hip_flexion_l	hip_adduction_l	hip_rotation_l	knee_angle_l	ankle_angle_l	subtalar_angle_l	mtp_angle_l	lumbar_extension	lumbar_bending	lumbar_rotation	neck_flexion	neck_lateral_bending	neck_rotation	arm_flex_r	arm_add_r	arm_rot_r	elbow_flex_r	pro_sup_r	wrist_flex_r	wrist_dev_r	hand_finger_flex_r	arm_flex_l	arm_add_l	arm_rot_l	elbow_flex_l	pro_sup_l	wrist_flex_l	wrist_dev_l	hand_finger_flex_l
      0.00250000	      1.40703453	    -16.14650795	     90.56813482	      0.08040271	      1.75623533	      1.82259139	     85.68589350	     -1.80508862	      2.62927077	   -148.44209064	     24.81756640	      5.85065793	     12.23311994	     85.82812878	     -8.22524457	     18.30108318	   -147.29395099	     21.07108254	     27.95477101	     30.00712173	    -46.98129195	     -1.81612670	      3.91670393	     42.25993916	      0.84157137	     -6.95111286	     77.21201981	    -27.07960797	      6.55537841	     76.02610527	     98.09842167	     -3.62314901	    -11.68735346	     -1.28784784	     85.73597824	    -15.99132222	     20.23572946	     51.44276629	    109.52688980	    -16.38518064	     -5.80889636	      9.57723164
      0.00500000	      1.38605190	    -16.20035845	     90.49033553	      0.08017153	      1.75703973	      1.81997932	     85.28524920	     -1.75959091	      2.56800453	   -148.29991306	     24.59993080	      5.33394111	     12.67850623	     85.38294031	     -8.23994618	     17.95959487	   -147.16349032	     20.69669573	     27.02704594	     32.45241003	    -46.88053702	     -1.84906099	      3.99633462	     42.28891959	      0.83494298	     -7.08014740	     78.21053380	    -26.86349480	      6.42592384	     75.93164492	     98.66259880	     -3.51879940	    -11.56925925	     -0.02467351	     86.97538866	    -15.93854915	     21.46418178	     50.55505844	    107.53842565	    -17.28397264	     -7.09198933	     11.19687626
      0.00750000	      1.41430683	    -16.58717142	     90.42727743	      0.07981225	      1.75754079	      1.81748678	     85.22444701	     -1.79544144	      2.57579342	   -148.12142710	     24.68677620	      5.37454258	     12.72256119	     85.31775494	     -8.25470890	     17.87710781	   -147.02384036	     20.61496820	     27.14754334	     32.55856784	    -46.45894772	     -1.82434875	      4.03296325	     42.49341339	      0.92740953	     -7.06253209	     79.26686330	    -26.79126424	      6.73407069	     75.84130825	     98.75649929	     -3.47873995	    -11.48651432	      0.02856629	     87.65438726	    -15.76788913	     21.45743641	     50.55676235	    107.49597020	    -17.37444163	     -6.95988606	     11.24883916
      0.01000000	      1.48726116	    -16.88344896	     90.36308630	      0.07951434	      1.75811365	      1.81489373	     85.03082588	     -1.75300405	      2.53649208	   -147.94543096	     24.75939799	      5.42258474	     12.77436287	     85.17323552	     -8.30159347	     17.84963133	   -146.89887039	     20.51682181	     27.18097971	     32.66631258	    -46.12216036	     -1.75048489	      4.11226536	     42.62945152	      0.89328261	     -7.00166645	     80.34735595	    -26.66095760	      7.05009377	     75.73394323	     98.85687573	     -3.45399163	    -11.40836498	      0.08077028	     88.39313999	    -15.66144952	     21.53740478	     50.48943445	    107.44283818	    -17.39657533	     -6.84601693	     11.31105225
      0.01250000	      1.59263111	    -17.00450727	     90.32601103	      0.07915749	      1.75880341	      1.81217972	     84.62521310	     -1.71974699	      2.46660537	   -147.77499353	     24.90455449	      5.51739945	     12.93796617	     84.86535388	     -8.34424673	     17.85345927	   -146.80922385	     20.28980009	     27.12232863	     32.99647672	    -45.94681774	     -1.58603780	      4.18427044	     42.51105887	      0.66073682	     -6.78888601	     81.61106272	    -26.60114441	      7.69676742	     75.53622718	     99.04789707	     -3.49566789	    -11.33900093	      0.23387595	     89.17573579	    -15.75868729	     21.91464218	     50.44334722	    107.15960515	    -17.41816902	     -6.75055045	     11.48984402
